<?xml version="1.0" encoding="utf-8"?>
<!-- Generator: Adobe Illustrator 19.0.0, SVG Export Plug-In . SVG Version: 6.00 Build 0)  -->
<svg version="1.1"
	 id="svg3240" xmlns:dc="http://purl.org/dc/elements/1.1/" xmlns:rdf="http://www.w3.org/1999/02/22-rdf-syntax-ns#" xmlns:cc="http://creativecommons.org/ns#" xmlns:svg="http://www.w3.org/2000/svg"
	 xmlns="http://www.w3.org/2000/svg" xmlns:xlink="http://www.w3.org/1999/xlink" x="0px" y="0px" viewBox="-184.4 390 71 20"
	 style="enable-background:new -184.4 390 71 20;" xml:space="preserve">
<style type="text/css">
	.st0{fill:#FFFFFF;}
	.st1{fill:#1FBE76;}
</style>
<path id="path3302" class="st0" d="M-156.7,402.7c0.8,0,1.5-0.3,2-0.7l-0.5-0.7c-0.4,0.4-0.9,0.5-1.4,0.5c-0.9,0-1.5-0.6-1.5-1.3
	h3.8v-0.3c0-1.5-0.9-2.7-2.4-2.7c-1.4,0-2.5,1.1-2.5,2.6C-159.3,401.7-158.2,402.7-156.7,402.7 M-155.4,399.7h-2.8
	c0-0.6,0.5-1.3,1.4-1.3C-155.8,398.4-155.4,399.1-155.4,399.7"/>
<path id="path3304" class="st0" d="M-151.7,402.7c1.3,0,2-0.7,2-1.5c0-1.9-3-1.3-3-2.2c0-0.3,0.3-0.6,0.9-0.6c0.6,0,1.2,0.3,1.4,0.6
	l0.4-0.7c-0.4-0.4-1.1-0.7-1.9-0.7c-1.2,0-1.9,0.7-1.9,1.5c0,1.9,3,1.2,3,2.2c0,0.4-0.3,0.6-1,0.6c-0.6,0-1.3-0.3-1.6-0.7l-0.5,0.8
	C-153.2,402.4-152.5,402.7-151.7,402.7"/>
<path id="path3306" class="st0" d="M-146.9,402.7c1.3,0,2-0.7,2-1.5c0-1.9-3-1.3-3-2.2c0-0.3,0.3-0.6,0.9-0.6c0.6,0,1.2,0.3,1.4,0.6
	l0.4-0.7c-0.4-0.4-1.1-0.7-1.9-0.7c-1.2,0-1.9,0.7-1.9,1.5c0,1.9,3,1.2,3,2.2c0,0.4-0.3,0.6-1,0.6c-0.6,0-1.3-0.3-1.6-0.7l-0.5,0.8
	C-148.5,402.4-147.7,402.7-146.9,402.7"/>
<path id="path3308" class="st0" d="M-141.5,402.7c0.8,0,1.5-0.3,2-0.7l-0.5-0.7c-0.4,0.4-0.9,0.5-1.4,0.5c-0.9,0-1.5-0.6-1.5-1.3
	h3.8v-0.3c0-1.5-0.9-2.7-2.4-2.7c-1.4,0-2.5,1.1-2.5,2.6C-144.1,401.7-143,402.7-141.5,402.7 M-140.2,399.7h-2.8
	c0-0.6,0.5-1.3,1.4-1.3C-140.7,398.4-140.3,399.1-140.2,399.7"/>
<path id="path3311" class="st0" d="M-133.3,402.6l1.6-4.9h-0.6l-1.3,4.1l-1.4-4.1h-0.5l-1.4,4.1l-1.3-4.1h-0.6l1.6,4.9h0.5l1.4-4.2
	l1.4,4.2H-133.3"/>
<path id="path3313" class="st0" d="M-128.7,402.7c1.4,0,2.4-1.1,2.4-2.6c0-1.4-0.9-2.6-2.4-2.6c-1.4,0-2.3,1.1-2.3,2.6
	C-131,401.5-130.1,402.7-128.7,402.7 M-128.7,402.2c-1.1,0-1.8-1-1.8-2.1c0-1.1,0.6-2.1,1.8-2.1c1.2,0,1.8,1,1.8,2.1
	C-126.9,401.2-127.5,402.2-128.7,402.2"/>
<path id="path3315" class="st0" d="M-124.5,402.6V399c0.2-0.4,0.9-0.9,1.4-0.9c0.1,0,0.2,0,0.3,0v-0.6c-0.7,0-1.2,0.4-1.6,0.9v-0.8
	h-0.5v4.9L-124.5,402.6"/>
<path id="path3317" class="st0" d="M-117.7,402.6l-2.3-2.7l2.3-2.2h-0.7l-2.9,2.8v-4.7h-0.5v6.7h0.5v-1.5l0.9-0.9l2,2.3H-117.7"/>
<path id="path3319" class="st0" d="M-115.2,402.7c1.2,0,1.8-0.6,1.8-1.4c0-1.9-3.1-1.1-3.1-2.4c0-0.5,0.5-0.9,1.2-0.9
	c0.6,0,1.2,0.3,1.5,0.6l0.3-0.4c-0.4-0.4-0.9-0.7-1.8-0.7c-1.1,0-1.7,0.6-1.7,1.4c0,1.8,3.1,1,3.1,2.3c0,0.6-0.5,1-1.3,1
	c-0.7,0-1.3-0.3-1.6-0.7l-0.3,0.4C-116.6,402.4-116,402.7-115.2,402.7"/>
<g>
	<path class="st1" d="M-170,399.9l-1.7-1.7c0,0-0.1,0-0.1,0l-5.4,5.4l-3.7-3.7l8.1-8.1c0,0,0-0.1,0-0.1l-1.5-1.5c0,0-0.1,0-0.1,0
		l-9.9,9.9c0,0,0,0.1,0,0.1l0.1,0.1l1.4,1.4l5.5,5.5c0.2,0.2,0.3,0.2,0.3,0.1l0.1-0.1c0,0,0,0,0,0l7-7C-169.9,400-170,400-170,399.9
		z"/>
	<path class="st1" d="M-164.4,400l-0.8-0.8l-0.8-0.8l-3.9-3.9l-0.9-0.9l-0.8-0.8c0,0-0.1,0-0.1,0l-7.1,7.1c0,0,0,0.1,0,0.1l1.7,1.7
		c0,0,0.1,0,0.1,0l5.3-5.3l3.7,3.7l-8.1,8.1c0,0,0,0.1,0,0.1l1.7,1.7c0,0,0.1,0,0.1,0l9.9-9.9C-164.4,400.1-164.4,400-164.4,400z"/>
</g>
</svg>
